<?xml version="1.0" encoding="iso-8859-1"?>
<!-- Generator: Adobe Illustrator 19.0.0, SVG Export Plug-In . SVG Version: 6.00 Build 0)  -->
<svg version="1.1" id="Layer_1" xmlns="http://www.w3.org/2000/svg" xmlns:xlink="http://www.w3.org/1999/xlink" x="0px" y="0px"
	 viewBox="0 0 503.607 503.607" style="enable-background:new 0 0 503.607 503.607;" xml:space="preserve">
<g transform="translate(1 1)">
	<g>
		<g>
			<path d="M494.213,108.115h-25.18v-8.393c0-5.036-3.357-8.393-8.393-8.393s-8.393,3.357-8.393,8.393v8.393h-33.574v-8.393
				c0-5.036-3.357-8.393-8.393-8.393s-8.393,3.357-8.393,8.393v8.393h-33.574V32.574c0-5.036-3.357-8.393-8.393-8.393h-75.541
				v-8.393c0-5.036-3.357-8.393-8.393-8.393s-8.393,3.357-8.393,8.393v8.393h-33.574v-8.393c0-5.036-3.357-8.393-8.393-8.393
				c-5.036,0-8.393,3.357-8.393,8.393v8.393h-75.541c-5.036,0-8.393,3.357-8.393,8.393v75.541H99.721v-8.393
				c0-5.036-3.357-8.393-8.393-8.393s-8.393,3.357-8.393,8.393v8.393H49.361v-8.393c0-5.036-3.357-8.393-8.393-8.393
				s-8.393,3.357-8.393,8.393v8.393H7.393c-5.036,0-8.393,3.357-8.393,8.393v302.164v67.148c0,5.036,3.357,8.393,8.393,8.393
				h134.295h41.967h134.295h41.967h134.295c5.036,0,8.393-3.357,8.393-8.393v-67.148V116.508
				C502.607,111.472,499.249,108.115,494.213,108.115z M485.82,124.902v285.377H368.311V124.902H485.82z M15.787,124.902h117.508
				v285.377H15.787V124.902z M15.787,427.066h117.508v50.361H15.787V427.066z M150.082,418.672V116.508V40.967h201.443v75.541
				v302.164v58.754h-25.18v-75.541c0-5.036-3.357-8.393-8.393-8.393H183.656c-5.036,0-8.393,3.357-8.393,8.393v75.541h-25.18
				V418.672z M192.049,410.279h50.361v67.148h-50.361V410.279z M259.197,477.426v-67.148h50.361v67.148H259.197z M485.82,477.426
				H368.311v-50.361H485.82V477.426z"/>
			<path d="M200.443,133.295h16.787c9.233,0,16.787-7.554,16.787-16.787V99.721c0-9.233-7.554-16.787-16.787-16.787h-16.787
				c-9.233,0-16.787,7.554-16.787,16.787v16.787C183.656,125.741,191.21,133.295,200.443,133.295z M200.443,99.721h16.787v16.787
				h-16.787V99.721z"/>
			<path d="M284.377,133.295h16.787c9.233,0,16.787-7.554,16.787-16.787V99.721c0-9.233-7.554-16.787-16.787-16.787h-16.787
				c-9.233,0-16.787,7.554-16.787,16.787v16.787C267.59,125.741,275.144,133.295,284.377,133.295z M284.377,99.721h16.787v16.787
				h-16.787V99.721z"/>
			<path d="M200.443,200.443h16.787c9.233,0,16.787-7.554,16.787-16.787v-16.787c0-9.233-7.554-16.787-16.787-16.787h-16.787
				c-9.233,0-16.787,7.554-16.787,16.787v16.787C183.656,192.889,191.21,200.443,200.443,200.443z M200.443,166.869h16.787v16.787
				h-16.787V166.869z"/>
			<path d="M284.377,200.443h16.787c9.233,0,16.787-7.554,16.787-16.787v-16.787c0-9.233-7.554-16.787-16.787-16.787h-16.787
				c-9.233,0-16.787,7.554-16.787,16.787v16.787C267.59,192.889,275.144,200.443,284.377,200.443z M284.377,166.869h16.787v16.787
				h-16.787V166.869z"/>
			<path d="M200.443,267.59h16.787c9.233,0,16.787-7.554,16.787-16.787v-16.787c0-9.233-7.554-16.787-16.787-16.787h-16.787
				c-9.233,0-16.787,7.554-16.787,16.787v16.787C183.656,260.036,191.21,267.59,200.443,267.59z M200.443,234.016h16.787v16.787
				h-16.787V234.016z"/>
			<path d="M284.377,267.59h16.787c9.233,0,16.787-7.554,16.787-16.787v-16.787c0-9.233-7.554-16.787-16.787-16.787h-16.787
				c-9.233,0-16.787,7.554-16.787,16.787v16.787C267.59,260.036,275.144,267.59,284.377,267.59z M284.377,234.016h16.787v16.787
				h-16.787V234.016z"/>
			<path d="M200.443,334.738h16.787c9.233,0,16.787-7.554,16.787-16.787v-16.787c0-9.233-7.554-16.787-16.787-16.787h-16.787
				c-9.233,0-16.787,7.554-16.787,16.787v16.787C183.656,327.184,191.21,334.738,200.443,334.738z M200.443,301.164h16.787v16.787
				h-16.787V301.164z"/>
			<path d="M284.377,334.738h16.787c9.233,0,16.787-7.554,16.787-16.787v-16.787c0-9.233-7.554-16.787-16.787-16.787h-16.787
				c-9.233,0-16.787,7.554-16.787,16.787v16.787C267.59,327.184,275.144,334.738,284.377,334.738z M284.377,301.164h16.787v16.787
				h-16.787V301.164z"/>
			<path d="M418.672,192.049h16.787c9.233,0,16.787-7.554,16.787-16.787v-16.787c0-9.233-7.554-16.787-16.787-16.787h-16.787
				c-9.233,0-16.787,7.554-16.787,16.787v16.787C401.885,184.495,409.439,192.049,418.672,192.049z M418.672,158.475h16.787v16.787
				h-16.787V158.475z"/>
			<path d="M418.672,259.197h16.787c9.233,0,16.787-7.554,16.787-16.787v-16.787c0-9.233-7.554-16.787-16.787-16.787h-16.787
				c-9.233,0-16.787,7.554-16.787,16.787v16.787C401.885,251.643,409.439,259.197,418.672,259.197z M418.672,225.623h16.787v16.787
				h-16.787V225.623z"/>
			<path d="M418.672,326.344h16.787c9.233,0,16.787-7.554,16.787-16.787V292.77c0-9.233-7.554-16.787-16.787-16.787h-16.787
				c-9.233,0-16.787,7.554-16.787,16.787v16.787C401.885,318.79,409.439,326.344,418.672,326.344z M418.672,292.77h16.787v16.787
				h-16.787V292.77z"/>
			<path d="M418.672,393.492h16.787c9.233,0,16.787-7.554,16.787-16.787v-16.787c0-9.233-7.554-16.787-16.787-16.787h-16.787
				c-9.233,0-16.787,7.554-16.787,16.787v16.787C401.885,385.938,409.439,393.492,418.672,393.492z M418.672,359.918h16.787v16.787
				h-16.787V359.918z"/>
			<path d="M82.934,141.689H66.148c-9.233,0-16.787,7.554-16.787,16.787v16.787c0,9.233,7.554,16.787,16.787,16.787h16.787
				c9.233,0,16.787-7.554,16.787-16.787v-16.787C99.721,149.243,92.167,141.689,82.934,141.689z M82.934,175.262H66.148v-16.787
				h16.787V175.262z"/>
			<path d="M82.934,208.836H66.148c-9.233,0-16.787,7.554-16.787,16.787v16.787c0,9.233,7.554,16.787,16.787,16.787h16.787
				c9.233,0,16.787-7.554,16.787-16.787v-16.787C99.721,216.39,92.167,208.836,82.934,208.836z M82.934,242.41H66.148v-16.787
				h16.787V242.41z"/>
			<path d="M82.934,275.984H66.148c-9.233,0-16.787,7.554-16.787,16.787v16.787c0,9.233,7.554,16.787,16.787,16.787h16.787
				c9.233,0,16.787-7.554,16.787-16.787V292.77C99.721,283.538,92.167,275.984,82.934,275.984z M82.934,309.557H66.148V292.77
				h16.787V309.557z"/>
			<path d="M82.934,343.131H66.148c-9.233,0-16.787,7.554-16.787,16.787v16.787c0,9.233,7.554,16.787,16.787,16.787h16.787
				c9.233,0,16.787-7.554,16.787-16.787v-16.787C99.721,350.685,92.167,343.131,82.934,343.131z M82.934,376.705H66.148v-16.787
				h16.787V376.705z"/>
		</g>
	</g>
</g>
<g>
</g>
<g>
</g>
<g>
</g>
<g>
</g>
<g>
</g>
<g>
</g>
<g>
</g>
<g>
</g>
<g>
</g>
<g>
</g>
<g>
</g>
<g>
</g>
<g>
</g>
<g>
</g>
<g>
</g>
</svg>
