<?xml version="1.0" encoding="iso-8859-1"?>
<!-- Generator: Adobe Illustrator 19.0.0, SVG Export Plug-In . SVG Version: 6.00 Build 0)  -->
<svg version="1.1" id="Layer_1" xmlns="http://www.w3.org/2000/svg" xmlns:xlink="http://www.w3.org/1999/xlink" x="0px" y="0px"
	 viewBox="0 0 512 512" style="enable-background:new 0 0 512 512;" xml:space="preserve">
<g transform="translate(1 1)">
	<g>
		<g>
			<path d="M255,323.267c-18.773,0-34.133,15.36-34.133,34.133c0,18.773,15.36,34.133,34.133,34.133
				c18.773,0,34.133-15.36,34.133-34.133C289.133,338.627,273.773,323.267,255,323.267z M255,374.467
				c-9.387,0-17.067-7.68-17.067-17.067s7.68-17.067,17.067-17.067s17.067,7.68,17.067,17.067S264.387,374.467,255,374.467z"/>
			<path d="M255.853,255.853c-27.307,0-52.907,10.24-72.533,29.867c-1.707,1.707-2.56,3.413-2.56,5.973s0.853,4.267,2.56,5.973
				l23.893,23.893c1.707,1.707,3.413,2.56,5.973,2.56c1.707,0,4.267-1.707,5.973-2.56c9.387-10.24,22.187-15.36,35.84-15.36
				s26.453,5.12,37.547,15.36c3.413,3.413,8.533,3.413,11.947,0l23.893-23.893c1.707-1.707,2.56-3.413,2.56-5.973
				s-0.853-4.267-2.56-5.973C308.76,266.093,283.16,255.853,255.853,255.853z M296.813,303.64
				c-11.947-9.387-26.453-14.507-41.813-14.507s-29.867,5.12-41.813,14.507l-11.947-11.947c15.36-12.8,34.133-19.627,53.76-19.627
				s38.4,6.827,53.76,19.627L296.813,303.64z"/>
			<path d="M255,186.733c-45.227,0-87.893,17.92-120.32,50.347c-3.413,3.413-3.413,8.533,0,11.947l23.893,23.893
				c1.707,1.707,3.413,2.56,5.973,2.56s4.267-0.853,5.973-2.56c23.04-22.187,52.907-34.987,84.48-34.987
				c31.573,0,62.293,12.8,84.48,34.987c1.707,1.707,3.413,2.56,5.973,2.56c2.56,0,4.267-0.853,5.973-2.56l23.893-23.893
				c3.413-3.413,3.413-8.533,0-11.947C343.747,204.653,300.227,186.733,255,186.733z M345.453,255
				c-24.747-22.187-57.173-34.133-90.453-34.133c-33.28,0-64.853,11.947-90.453,34.133L152.6,243.053
				c28.16-25.6,64-39.253,102.4-39.253c38.4,0,74.24,13.653,102.4,39.253L345.453,255z"/>
			<path d="M423.96,188.44C378.733,143.213,319,118.467,255,118.467s-123.733,24.747-168.107,70.827
				c-3.413,3.413-3.413,8.533,0,11.947l23.893,23.893c3.413,3.413,8.533,3.413,11.947,0c34.987-35.84,81.92-55.467,132.267-55.467
				s97.28,19.627,133.12,54.613c1.707,1.707,3.413,2.56,5.973,2.56c1.707,0,4.267-0.853,5.973-1.707l23.893-24.747
				C427.373,196.973,427.373,191.853,423.96,188.44z M393.24,206.36C355.693,171.373,307.053,152.6,255,152.6
				s-100.693,18.773-139.093,53.76l-11.947-11.947c41.813-37.547,94.72-58.88,151.04-58.88s109.227,21.333,150.187,58.88
				L393.24,206.36z"/>
			<path d="M255-1C114.2-1-1,114.2-1,255s115.2,256,256,256s256-115.2,256-256S395.8-1,255-1z M255,493.933
				c-131.413,0-238.933-107.52-238.933-238.933S123.587,16.067,255,16.067S493.933,123.587,493.933,255S386.413,493.933,255,493.933
				z"/>
		</g>
	</g>
</g>
<g>
</g>
<g>
</g>
<g>
</g>
<g>
</g>
<g>
</g>
<g>
</g>
<g>
</g>
<g>
</g>
<g>
</g>
<g>
</g>
<g>
</g>
<g>
</g>
<g>
</g>
<g>
</g>
<g>
</g>
</svg>
