<?xml version="1.0" encoding="iso-8859-1"?>
<!-- Generator: Adobe Illustrator 19.0.0, SVG Export Plug-In . SVG Version: 6.00 Build 0)  -->
<svg version="1.1" id="Layer_1" xmlns="http://www.w3.org/2000/svg" xmlns:xlink="http://www.w3.org/1999/xlink" x="0px" y="0px"
	 viewBox="0 0 503.467 503.467" style="enable-background:new 0 0 503.467 503.467;" xml:space="preserve">
<g transform="translate(1 1)">
	<g>
		<g>
			<path d="M255,169.684c-55.467,0-102.4,46.933-102.4,102.4s46.933,102.4,102.4,102.4s102.4-46.933,102.4-102.4
				S310.467,169.684,255,169.684z M255,357.417c-46.08,0-85.333-39.253-85.333-85.333c0-46.08,39.253-85.333,85.333-85.333
				c46.08,0,85.333,39.253,85.333,85.333C340.333,318.164,301.08,357.417,255,357.417z"/>
			<path d="M485.4,242.565V50.217c0-3.413-1.707-5.973-5.12-7.68c-3.413-1.707-6.827-0.853-9.387,1.707
				C447,68.137,434.2,99.711,434.2,132.991v51.2c0,19.627,4.267,39.253,12.8,56.32l1.931,3.541
				c-8.883,6.179-14.731,16.453-14.731,28.033v153.6c0,18.773,15.36,34.133,34.133,34.133c18.773,0,34.133-15.36,34.133-34.133
				v-153.6C502.467,259.518,495.58,248.49,485.4,242.565z M464.92,237.951l-2.56-5.12c-6.827-15.36-11.093-31.573-11.093-48.64
				v-52.053c0-20.48,5.973-40.96,17.067-58.027v163.84H464.92z M485.4,425.684c0,9.387-7.68,17.067-17.067,17.067
				s-17.067-7.68-17.067-17.067v-153.6c0-9.387,7.68-17.067,17.067-17.067s17.067,7.68,17.067,17.067V425.684z"/>
			<path d="M75.8,50.217c-5.12,0-8.533,3.413-8.533,8.533v93.867c0,11.491-6.963,20.833-17.067,24.224V58.751
				c0-5.12-3.413-8.533-8.533-8.533s-8.533,3.413-8.533,8.533v118.091c-10.103-3.391-17.067-12.734-17.067-24.224V58.751
				c0-5.12-3.413-8.533-8.533-8.533S-1,53.631-1,58.751v93.867c0,20.963,14.452,37.981,34.133,41.841v44.58
				c-14.679,3.814-25.6,17.216-25.6,33.046v153.6c0,18.773,15.36,34.133,34.133,34.133c18.773,0,34.133-15.36,34.133-34.133v-153.6
				c0-15.829-10.921-29.232-25.6-33.046v-44.58c19.681-3.86,34.133-20.878,34.133-41.841V58.751
				C84.333,53.631,80.92,50.217,75.8,50.217z M58.733,272.084v153.6c0,9.387-7.68,17.067-17.067,17.067S24.6,435.071,24.6,425.684
				v-153.6c0-9.387,7.68-17.067,17.067-17.067S58.733,262.697,58.733,272.084z"/>
			<path d="M33.133,306.217c0,5.12,3.413,8.533,8.533,8.533s8.533-3.413,8.533-8.533s-3.413-8.533-8.533-8.533
				S33.133,301.097,33.133,306.217z"/>
			<path d="M468.333,297.684c-5.12,0-8.533,3.413-8.533,8.533s3.413,8.533,8.533,8.533s8.533-3.413,8.533-8.533
				S473.453,297.684,468.333,297.684z"/>
			<path d="M255,109.951c-89.6,0-162.133,72.533-162.133,162.133S165.4,434.217,255,434.217s162.133-72.533,162.133-162.133
				S344.6,109.951,255,109.951z M255,417.151c-80.213,0-145.067-64.853-145.067-145.067S174.787,127.017,255,127.017
				s145.067,64.853,145.067,145.067S335.213,417.151,255,417.151z"/>
		</g>
	</g>
</g>
<g>
</g>
<g>
</g>
<g>
</g>
<g>
</g>
<g>
</g>
<g>
</g>
<g>
</g>
<g>
</g>
<g>
</g>
<g>
</g>
<g>
</g>
<g>
</g>
<g>
</g>
<g>
</g>
<g>
</g>
</svg>
