<?xml version="1.0" encoding="iso-8859-1"?>
<!-- Generator: Adobe Illustrator 19.0.0, SVG Export Plug-In . SVG Version: 6.00 Build 0)  -->
<svg version="1.1" id="Layer_1" xmlns="http://www.w3.org/2000/svg" xmlns:xlink="http://www.w3.org/1999/xlink" x="0px" y="0px"
	 viewBox="0 0 503.607 503.607" style="enable-background:new 0 0 503.607 503.607;" xml:space="preserve">
<g transform="translate(1 1)">
	<g>
		<g>
			<path d="M368.311,410.279v-92.328c0-14.269-10.911-25.18-25.18-25.18h-4.197c-4.197,0-7.554-2.518-8.393-5.875l-29.377-102.4
				v-0.839c-6.715-15.108-21.823-25.18-38.61-25.18H104.757c-16.787,0-31.895,10.072-38.61,25.18v0.839l-29.377,102.4
				c-1.679,3.357-5.036,5.875-8.393,5.875H24.18C9.911,292.771-1,303.682-1,317.951v92.328c0,14.269,10.911,25.18,25.18,25.18
				v41.967c0,14.269,10.911,25.18,25.18,25.18h16.787c14.269,0,25.18-10.911,25.18-25.18v-41.967h184.656v41.967
				c0,14.269,10.911,25.18,25.18,25.18h16.787c14.269,0,25.18-10.911,25.18-25.18v-41.967
				C357.4,435.459,368.311,424.548,368.311,410.279z M74.541,477.426c0,5.036-3.357,8.393-8.393,8.393H49.361
				c-5.036,0-8.393-3.357-8.393-8.393v-41.967h33.574V477.426z M326.344,477.426c0,5.036-3.357,8.393-8.393,8.393h-16.787
				c-5.036,0-8.393-3.357-8.393-8.393v-41.967h33.574V477.426z M351.525,410.279c0,5.036-3.357,8.393-8.393,8.393h-8.393h-50.361
				H82.934H32.574H24.18c-5.036,0-8.393-3.357-8.393-8.393v-92.328c0-5.036,3.357-8.393,8.393-8.393h4.197
				c10.911,0,20.984-7.554,24.341-18.466l29.377-101.561c4.197-8.393,12.59-14.269,22.662-14.269h157.797
				c9.233,0,18.466,5.036,22.662,14.269l29.377,101.561c3.357,10.911,13.43,18.466,24.341,18.466h4.197
				c5.036,0,8.393,3.357,8.393,8.393V410.279z"/>
			<path d="M74.541,326.344c-18.466,0-33.574,15.108-33.574,33.574s15.108,33.574,33.574,33.574s33.574-15.108,33.574-33.574
				S93.007,326.344,74.541,326.344z M74.541,376.705c-9.233,0-16.787-7.554-16.787-16.787s7.554-16.787,16.787-16.787
				s16.787,7.554,16.787,16.787S83.774,376.705,74.541,376.705z"/>
			<path d="M292.771,326.344c-18.466,0-33.574,15.108-33.574,33.574s15.108,33.574,33.574,33.574s33.574-15.108,33.574-33.574
				S311.236,326.344,292.771,326.344z M292.771,376.705c-9.233,0-16.787-7.554-16.787-16.787s7.554-16.787,16.787-16.787
				c9.233,0,16.787,7.554,16.787,16.787S302.003,376.705,292.771,376.705z"/>
			<path d="M200.443,368.311h-33.574c-5.036,0-8.393,3.357-8.393,8.393c0,5.036,3.357,8.393,8.393,8.393h33.574
				c5.036,0,8.393-3.357,8.393-8.393C208.836,371.669,205.479,368.311,200.443,368.311z"/>
			<path d="M217.229,334.738h-67.148c-5.036,0-8.393,3.357-8.393,8.393c0,5.036,3.357,8.393,8.393,8.393h67.148
				c5.036,0,8.393-3.357,8.393-8.393C225.623,338.095,222.266,334.738,217.229,334.738z"/>
			<path d="M103.079,292.771h161.993c5.036,0,10.072-2.518,13.43-6.715s4.197-10.072,2.518-15.108L260.875,203.8
				c-1.679-6.715-8.394-11.751-15.948-11.751H123.223c-7.554,0-13.43,4.197-15.948,11.751l-20.144,67.148
				c-1.679,5.036-0.839,10.911,2.518,15.108C93.007,290.252,98.043,292.771,103.079,292.771z M123.223,208.836h121.705
				l20.144,67.148H103.079L123.223,208.836z"/>
			<path d="M494.213-1H351.525c-5.036,0-8.393,3.357-8.393,8.393v142.689c0,5.036,3.357,8.393,8.393,8.393h58.754v260.197h-16.787
				c-5.036,0-8.393,3.357-8.393,8.393v25.18h-16.787c-5.036,0-8.393,3.357-8.393,8.393v33.574c0,5.036,3.357,8.393,8.393,8.393
				h100.721c5.036,0,8.393-3.357,8.393-8.393v-33.574c0-5.036-3.357-8.393-8.393-8.393h-16.787v-25.18
				c0-5.036-3.357-8.393-8.393-8.393h-16.787V158.475h67.148c5.036,0,8.393-3.357,8.393-8.393V7.393
				C502.607,2.357,499.249-1,494.213-1z M460.639,485.82h-83.934v-16.787h16.787h50.361h16.787V485.82z M435.459,452.246h-33.574
				v-16.787h33.574V452.246z M485.82,141.689H359.918V15.787H485.82V141.689z"/>
			<path d="M410.279,124.902c5.036,0,8.393-3.357,8.393-8.393V99.721h8.393c18.466,0,33.574-15.108,33.574-33.574
				c0-18.466-15.108-33.574-33.574-33.574h-16.787c-5.036,0-8.393,3.357-8.393,8.393v50.361v25.18
				C401.885,121.544,405.243,124.902,410.279,124.902z M443.852,66.148c0,9.233-7.554,16.787-16.787,16.787h-8.393V49.361h8.393
				C436.298,49.361,443.852,56.915,443.852,66.148z"/>
		</g>
	</g>
</g>
<g>
</g>
<g>
</g>
<g>
</g>
<g>
</g>
<g>
</g>
<g>
</g>
<g>
</g>
<g>
</g>
<g>
</g>
<g>
</g>
<g>
</g>
<g>
</g>
<g>
</g>
<g>
</g>
<g>
</g>
</svg>
